<?xml version="1.0" encoding="UTF-8" standalone="no"?>
<!-- Created with Inkscape (http://www.inkscape.org/) -->

<svg
   width="450"
   height="450"
   viewBox="0 0 119.0625 119.06251"
   version="1.1"
   id="svg465"
   inkscape:version="1.1 (c68e22c387, 2021-05-23)"
   sodipodi:docname="drawing.svg"
   xmlns:inkscape="http://www.inkscape.org/namespaces/inkscape"
   xmlns:sodipodi="http://sodipodi.sourceforge.net/DTD/sodipodi-0.dtd"
   xmlns="http://www.w3.org/2000/svg"
   xmlns:svg="http://www.w3.org/2000/svg">
  <sodipodi:namedview
     id="namedview467"
     pagecolor="#ffffff"
     bordercolor="#666666"
     borderopacity="1.0"
     inkscape:pageshadow="2"
     inkscape:pageopacity="0.0"
     inkscape:pagecheckerboard="0"
     inkscape:document-units="mm"
     showgrid="false"
     units="px"
     inkscape:zoom="0.74118967"
     inkscape:cx="116.70427"
     inkscape:cy="238.13068"
     inkscape:window-width="1920"
     inkscape:window-height="1017"
     inkscape:window-x="1912"
     inkscape:window-y="-8"
     inkscape:window-maximized="1"
     inkscape:current-layer="layer1" />
  <defs
     id="defs462" />
  <g
     inkscape:label="Layer 1"
     inkscape:groupmode="layer"
     id="layer1"
     style="opacity:1">
    <path
       style="fill:#254d24;stroke:none;stroke-width:0.264739"
       d="m 16.02449,69.412995 c -4.989906,-26.78231 14.356529,-52.16686 41.564016,-54.75601 5.178294,-0.49281 10.686453,0.52689 15.619598,2.04252 2.140415,0.65763 4.935529,2.56791 7.147952,2.56508 1.35414,-0.002 2.68207,-1.10436 3.971084,-1.47568 -0.940352,-1.53763 -3.168131,-2.13004 -4.765301,-2.79978 -4.718707,-1.97858 -9.974305,-3.31548 -15.09012,-3.56418 -21.523013,-1.04627 -40.867753,9.93857 -49.430999,30.19046 -2.606805,6.16498 -3.516792,12.69212 -3.516792,19.32595 0,1.60193 -0.449845,5.10099 0.536837,6.43342 0.715272,0.96576 2.87856,1.5474 3.963725,2.03822 m 9.795341,-25.67968 v 0.26474 c 4.932352,-0.40293 10.06008,-2.11103 14.825382,-3.40163 12.93038,-3.50197 25.333929,-8.30565 37.592931,-13.65402 4.634256,-2.02186 9.060426,-4.47996 13.766422,-6.34698 2.74402,-1.08869 5.59288,-2.00254 8.471654,-0.95335 -3.955464,-6.69726 -13.979809,-0.81053 -18.796469,1.52 -9.861526,4.77163 -20.331687,8.34576 -30.709719,11.8051 -8.831692,2.9439 -17.376671,5.47825 -25.150201,10.76614 m 17.208032,-10.06008 10.060081,-2.90551 18.796465,-6.88983 c -4.133898,-8.86489 -18.8833,-6.51761 -24.544213,-0.94557 -3.061971,3.01416 -3.796886,6.66314 -4.312333,10.74091 m 0.794217,7.41269 c -0.231646,3.0723 -4.593485,4.73168 -5.819492,7.67743 -2.397211,5.75913 2.336057,12.77286 -1.913533,17.73751 -2.351146,2.74667 -5.611671,4.00709 -8.945529,5.1182 -2.392711,0.79766 -4.995095,1.51457 -5.294779,4.41241 -0.933205,-0.99595 -0.87761,-2.39775 -1.058956,-3.70635 -0.576098,-4.15773 0.851665,-6.36221 1.639264,-10.32482 0.580043,-2.91848 -0.240119,-5.77607 -1.321577,-8.47165 -0.524978,-1.3086 -0.961162,-3.17183 -2.17086,-3.97108 -0.616815,2.66619 -1.797471,5.18888 -2.072773,7.94217 -0.555052,5.55131 1.368038,11.13174 2.86699,16.41381 -2.636482,-2.02472 -4.972327,-4.03965 -8.206907,-5.09649 -3.6110665,-1.17967 -7.6384875,-0.72776 -11.38377648,-0.72776 2.72146398,3.55862 7.15274398,7.28985 11.64851448,8.08407 1.858415,0.32854 4.97937,-0.70818 6.573336,0.13395 1.510839,0.79846 2.800012,3.16072 3.840966,4.48945 2.753285,3.51414 5.838552,6.93563 8.382164,10.589553 -2.191509,-0.51491 -3.877631,-2.322553 -6.088996,-2.931453 -4.080103,-1.12355 -7.443135,0.26262 -11.383775,1.07828 2.370923,4.181293 9.492745,5.277573 13.766426,4.565423 1.220711,-0.20332 3.450872,-1.69327 4.504533,-1.47009 1.03963,0.22026 1.860586,1.46718 2.643419,2.11235 1.93127,1.59188 4.420876,2.51105 6.883213,1.80949 3.927137,-1.11852 3.079443,-6.209453 6.883212,-6.222953 -1.34355,4.792303 4.252502,8.861603 7.67743,4.500563 -2.028694,0.73915 -6.102233,-0.85961 -3.600979,-3.29388 1.75416,-1.707043 4.23953,-0.38414 5.98363,0.61287 4.366869,2.49649 7.718729,7.22287 12.177992,9.299482 -2.187803,-7.709992 -6.585911,-14.952455 -7.367685,-23.032285 -0.328012,-3.38866 0.425965,-6.48293 0.900642,-9.79535 0.390225,-2.72416 -0.800571,-6.46068 1.312311,-8.64531 2.310906,-2.389 6.070199,1.26254 8.860812,0.45244 2.348764,-0.6817 1.510336,-3.27588 3.441872,-4.24986 l 0.529477,-3.4416 c 6.031283,-1.56514 -0.599898,-6.6476 1.496305,-11.11507 0.909908,-1.93895 4.009207,-2.85785 5.651647,-4.15216 4.572042,-3.60257 6.052728,-8.20982 4.235824,-13.58932 l -15.35486,7.44658 -16.149076,5.35196 -13.766426,4.40949 m 47.917756,-17.20803 c 0.21417,1.59053 0.12628,4.14743 0.79765,5.55952 1.8635,3.91946 5.35806,7.02564 7.18131,11.11904 3.345774,7.5117 3.934294,14.18418 3.934294,22.23807 0.96921,-0.49533 3.06515,-0.87549 3.69892,-1.73748 0.50221,-0.68303 0.27215,-1.96675 0.27215,-2.76308 0,-2.72417 -0.31689,-5.25878 -0.7733,-7.94217 -1.59742,-9.39268 -6.954424,-21.07852 -15.111024,-26.4739 m -58.772053,3.17687 -0.529478,10.58956 c 2.311171,-0.84981 1.365788,-8.59676 0.529478,-10.58956 m 45.270361,3.97108 c -0.53689,6.56553 -8.764977,8.73268 -14.295903,8.73639 v -0.26474 c 5.099931,-0.23297 10.795525,-4.57231 13.766425,-8.47165 h 0.529478 m -51.094618,2.64739 -0.264739,7.41269 c 1.602465,-1.2485 1.381143,-5.77845 0.264739,-7.41269 m 52.947791,2.11792 -3.126832,8.73638 1.538398,6.35374 -2.38265,0.52947 c 0.785745,2.22328 -0.691498,2.37736 -2.64739,2.38265 l 1.588434,1.3237 c -0.300479,0.90329 -0.60837,2.57353 -1.437533,3.12921 -2.183302,1.46348 -7.148746,-1.922 -8.573571,-3.41857 -2.017046,-2.11897 -2.42395,-5.11211 -2.431627,-7.91755 h -0.264739 l -0.529478,1.3237 c -1.658325,-0.34787 -5.26301,-2.92113 -2.739254,-4.75789 0.91335,-0.66476 2.543612,-0.0789 3.533471,0.0945 1.851584,0.3243 3.715347,0.0842 5.559518,-0.17738 5.424501,-0.76959 8.464234,-3.65101 11.913253,-7.60198 m 5.294779,5.55952 -1.054985,33.88659 1.465331,5.82425 0.383871,7.67743 7.412693,1.58447 12.442734,-1.31973 c -3.06753,-3.79265 -8.716804,-6.11229 -13.501694,-4.82963 -2.0001,0.5361 -3.485286,1.81161 -5.294777,2.71172 2.430567,-4.26627 6.043457,-7.99459 8.991857,-11.91325 1.25433,-1.66733 2.36253,-4.05316 4.245094,-5.11132 1.08543,-0.61022 2.56903,0.0524 3.70635,0.2298 1.66097,0.25891 3.41062,0.0797 5.03003,-0.34866 4.25991,-1.127 6.98778,-4.43015 10.58955,-6.68307 v -0.26474 c -7.52944,-1.39782 -13.46699,-0.007 -19.855414,3.97108 1.569384,-8.09254 2.577774,-13.93215 -1.05895,-21.70859 -2.08562,3.31427 -3.28515,9.39479 -2.47028,13.23695 0.44661,2.10626 2.05358,4.23052 2.1473,6.35373 0.13581,3.07838 -2.24287,5.7046 -3.11863,8.47165 h -0.26474 c -0.0953,-2.54256 0.91997,-4.88258 1.03142,-7.41269 0.18876,-4.28877 -1.91009,-10.4556 -5.26724,-13.23695 -0.27586,3.37807 -1.626028,6.62112 -1.20456,10.0704 0.46276,3.78842 3.8546,7.93926 3.47628,11.63819 -0.27056,2.6458 -2.93886,5.54469 -4.654372,7.41269 1.065044,-2.74613 2.034252,-5.46606 1.829342,-8.47164 -0.23694,-3.47629 -1.957741,-5.83511 -2.985193,-9.00113 -0.77542,-2.39006 -0.57766,-5.44621 -0.686997,-7.94217 -0.143224,-3.27376 -0.348397,-6.52634 -0.530537,-9.79534 -0.08683,-1.56302 0.01112,-3.67034 -0.803483,-5.03004 m -51.624096,2.64739 -1.323695,0.26474 c 0,4.97259 0.35528,11.05603 -0.794217,15.88434 0.944589,-0.32219 2.354588,-0.7561 2.904716,-1.65833 0.626372,-1.02718 0.06645,-2.52667 0.01774,-3.63645 -0.143489,-3.27879 0.478912,-7.80265 -0.804542,-10.8543 m 37.063454,0.52948 c 0.92738,1.77269 4.055536,3.97479 5.559518,1.58843 l -5.55952,-1.58843 m -25.422618,0.81698 c 1.625498,0.31954 1.036983,2.79353 -0.487384,2.38901 -1.395439,-0.37064 -1.010509,-2.68313 0.487384,-2.38901 m -18.788788,0.50672 -0.589044,15.09012 -2.026842,3.97108 -0.560981,5.82426 c 2.617209,-0.90726 4.604869,-2.7337 5.03004,-5.55952 l -1.058956,0.26474 c 3.025701,-5.7038 0.794217,-13.26395 0.794217,-19.59068 h -1.588434 m 17.208032,35.73975 c -0.549068,-2.40303 1.622056,-5.2323 3.262908,-6.75058 3.74738,-3.46781 8.748563,-5.63417 10.196685,-10.98693 1.302781,-4.81613 -2.140149,-8.91879 -5.782163,-11.60721 -0.999654,-0.73809 -5.47136,-2.82953 -5.095696,-4.28612 0.601752,-2.33553 6.087143,1.12249 7.213608,1.74118 5.051219,2.77447 8.954,7.36372 8.953736,13.35794 0,1.30251 -0.300479,2.72866 -0.672967,3.97108 -2.710662,9.0366 -13.352638,7.64963 -18.076111,14.56064 m 0.794217,-32.29815 c 1.283719,1.14023 2.131678,2.66486 2.79882,4.23582 4.907996,11.55612 -7.017171,18.48964 -14.976812,24.09125 1.523573,-6.0432 9.409087,-8.41314 12.431612,-13.76643 1.586845,-2.81099 2.389534,-6.36009 1.558253,-9.5306 -0.434966,-1.65965 -1.652235,-3.37224 -1.811873,-5.03004 m 28.591807,4.23582 0.264739,0.26474 -0.264739,-0.26474 m 6.883213,0.26474 -1.323695,20.3849 3.441607,1.05896 -1.278689,-14.2959 -0.839223,-7.14796 m -45.005622,6.61848 c -3.896693,2.29846 -5.030041,4.81772 -5.030041,9.26586 4.029063,-0.72697 5.925917,-5.53675 5.030041,-9.26586 m 38.387148,12.17799 2.64739,1.05895 -1.058956,-11.64851 c -1.345403,0.44662 -1.016333,1.70439 -1.069281,2.91213 -0.110396,2.51608 -0.09107,5.19365 -0.519153,7.67743 m -53.477269,-5.29478 v 0.52948 l -0.529478,-0.52948 h 0.529478 m -1.058956,0.26474 -0.264739,0.26474 0.264739,-0.26474 m 46.858795,0.52948 c 0.19326,2.53911 0.159903,5.00992 1.141555,7.41269 2.441423,5.97436 7.972614,10.27081 8.842016,16.943293 0.31504,2.41813 -0.184523,4.55695 -0.717707,6.88321 h 0.264739 c 4.511681,-6.81252 5.663296,-13.645443 -0.529478,-19.855423 1.337461,0.18002 3.11836,0.37196 4.224439,1.19503 3.415927,2.54176 2.456778,8.87908 2.923513,12.571403 h 0.264739 c 0.668466,-4.543193 2.596824,-11.313623 -0.898524,-15.326013 -1.74463,-2.00301 -5.498364,-1.36102 -7.837862,-2.48086 -3.556768,-1.70281 -5.035335,-4.7391 -7.67743,-7.34333 m 1.853173,3.17686 -0.264739,0.26474 0.264739,-0.26474 m 26.4739,7.41269 c 6.431564,0.27692 12.850944,0.89429 16.943284,-5.55951 -6.63779,-0.85723 -12.643924,-0.54325 -16.943284,5.55951 m -35.739763,-3.97108 c -0.611547,4.73565 -1.534163,7.95885 -0.264739,12.70747 -2.074495,-0.0442 -3.627983,-0.68091 -4.500562,-2.64739 -5.262481,2.03002 -9.99522,2.41548 -15.090121,-0.26474 l 1.853173,2.91213 c -5.34508,-1.39756 -6.961311,-4.93712 -5.294779,-10.06008 h 0.264739 c 0.259708,1.73298 1.083576,3.24279 2.39324,4.42114 7.971819,7.17125 15.04988,-2.18436 20.639049,-7.06853 m -28.591808,1.3237 c -0.50168,1.20668 -1.218858,2.37126 -1.295102,3.70634 -0.259974,4.54927 4.699645,7.75818 7.913576,10.06008 v 0.26474 l -1.058955,-0.26474 c 2.209776,2.530113 6.165505,1.344083 9.001124,0.79422 -1.723715,3.320623 -5.751719,4.344633 -8.736385,2.014663 -4.678997,-3.652873 -12.17561,-11.103683 -11.383776,-17.369523 2.098321,0.60413 3.347095,1.59902 5.559518,0.79422 m 0.529478,-0.52948 -0.264739,0.26474 0.264739,-0.26474 m -22.5028115,3.70634 c 5.2831575,5.12164 8.8784455,5.7954 15.8843375,4.7653 -2.592853,-5.32125 -10.850299,-6.65395 -15.8843375,-4.7653 m 66.9789565,0 -0.264739,0.26474 z"
       id="path144" />
  </g>
</svg>
