<?xml version="1.0" encoding="UTF-8" standalone="no"?>
<!-- Created with Inkscape (http://www.inkscape.org/) -->

<svg
   width="210mm"
   height="297mm"
   viewBox="0 0 210 297"
   version="1.1"
   id="svg42842"
   inkscape:version="1.1 (c68e22c387, 2021-05-23)"
   sodipodi:docname="drawing.svg"
   xmlns:inkscape="http://www.inkscape.org/namespaces/inkscape"
   xmlns:sodipodi="http://sodipodi.sourceforge.net/DTD/sodipodi-0.dtd"
   xmlns="http://www.w3.org/2000/svg"
   xmlns:svg="http://www.w3.org/2000/svg">
  <sodipodi:namedview
     id="namedview42844"
     pagecolor="#ffffff"
     bordercolor="#666666"
     borderopacity="1.0"
     inkscape:pageshadow="2"
     inkscape:pageopacity="0.0"
     inkscape:pagecheckerboard="0"
     inkscape:document-units="mm"
     showgrid="false"
     inkscape:zoom="0.74118967"
     inkscape:cx="397.33419"
     inkscape:cy="238.13068"
     inkscape:window-width="400"
     inkscape:window-height="240"
     inkscape:window-x="400"
     inkscape:window-y="0"
     inkscape:window-maximized="1"
     inkscape:current-layer="layer1" />
  <defs
     id="defs42839" />
  <g
     inkscape:label="Layer 1"
     inkscape:groupmode="layer"
     id="layer1">
    <path
       style="fill:#FFF7FE;fill-opacity:1;stroke:none;stroke-width:0.115575"
       d="M 8.4063487,28.334341 C 6.2893827,16.302971 14.497102,4.8995144 26.03987,3.7363954 c 2.19689,-0.221385 4.533724,0.236693 6.626609,0.917557 0.908071,0.295426 2.093897,1.153578 3.032517,1.152307 0.574493,-8.99e-4 1.137867,-0.49611 1.684731,-0.662917 -0.398944,-0.690747 -1.344079,-0.956875 -2.021677,-1.257741 -2.00191,-0.888834 -4.231596,-1.489407 -6.401979,-1.60113 -9.131132,-0.470014 -17.338132,4.464686 -20.9710863,13.5624066 -1.105937,2.769484 -1.491998,5.701659 -1.491998,8.681763 0,0.719632 -0.190847,2.291509 0.227753,2.890074 0.303454,0.433847 1.221228,0.695136 1.681609,0.915626 M 12.562019,16.798303 v 0.118929 c 2.092549,-0.181007 4.267986,-0.948334 6.289664,-1.528108 5.48571,-1.573184 10.747912,-3.731133 15.948789,-6.1337716 1.966082,-0.908276 3.843883,-2.012524 5.840401,-2.851242 1.164149,-0.489071 2.372777,-0.899598 3.594096,-0.428272 -1.678104,-3.008599 -5.930929,-0.364113 -7.974396,0.682827 -4.183749,2.143551 -8.625712,3.7491506 -13.028589,5.3031836 -3.746842,1.322483 -7.372047,2.460985 -10.669965,4.836454 m 7.300503,-4.519272 4.267986,-1.305237 7.974394,-3.0951056 C 30.351097,3.8963294 24.093668,4.9507934 21.692028,7.4539114 20.392987,8.8079574 20.0812,10.447182 19.862522,12.279031 m 0.336946,3.32999 c -0.09828,1.380164 -1.948785,2.125604 -2.468918,3.448919 -1.017016,2.587163 0.991072,5.737929 -0.811815,7.96819 -0.997473,1.233882 -2.38075,1.800098 -3.795138,2.29924 -1.015107,0.358332 -2.119168,0.680388 -2.246309,1.982179 -0.395912,-0.447408 -0.372326,-1.077137 -0.449262,-1.664997 -0.244409,-1.867769 0.361319,-2.858084 0.695457,-4.638201 0.246084,-1.311063 -0.10187,-2.594773 -0.560678,-3.805704 -0.222722,-0.58786 -0.407773,-1.424876 -0.9209873,-1.783921 -0.261683,1.197728 -0.762576,2.330991 -0.879373,3.567847 -0.235481,2.493805 0.58039,5.000692 1.216319,7.373547 -1.118526,-0.909561 -2.109508,-1.814725 -3.481777,-2.289487 -1.531994,-0.529941 -3.240626,-0.326931 -4.829563,-0.326931 1.154579,1.598633 3.034549,3.274807 4.941878,3.631593 0.788432,0.147589 2.112496,-0.318135 2.788736,0.06017 0.6409733,0.358691 1.1879043,1.419885 1.6295283,2.016788 1.168081,1.578651 2.477004,3.115681 3.556131,4.757126 -0.929747,-0.231312 -1.645084,-1.043356 -2.583255,-1.316891 -1.730982,-0.504731 -3.1577483,0.117976 -4.8295633,0.484394 1.005863,1.878355 4.0272943,2.370834 5.8404023,2.050917 0.517887,-0.09134 1.464032,-0.760665 1.911047,-0.660406 0.441063,0.09895 0.789353,0.659098 1.12147,0.948927 0.81934,0.715117 1.875555,1.128035 2.920201,0.812874 1.666086,-0.502471 1.306452,-2.789462 2.9202,-2.795526 -0.570001,2.152838 1.804123,3.980882 3.257147,2.02178 -0.860672,0.332047 -2.58887,-0.386161 -1.527714,-1.479704 0.744202,-0.766852 1.798619,-0.172567 2.538553,0.275318 1.852643,1.121494 3.274669,3.244718 5.16651,4.17759 -0.928175,-3.463546 -2.794071,-6.717065 -3.125738,-10.346753 -0.139159,-1.522282 0.180715,-2.912315 0.382097,-4.400348 0.165553,-1.223769 -0.339642,-2.90232 0.556747,-3.883717 0.980401,-1.073207 2.57528,0.567168 3.759197,0.203249 0.996462,-0.306239 0.640759,-1.471618 1.460213,-1.909158 l 0.22463,-1.546064 c 2.55877,-0.703105 -0.254506,-2.986289 0.634807,-4.993203 0.386029,-0.871031 1.700905,-1.283827 2.39771,-1.865268 1.939687,-1.618376 2.567868,-3.688083 1.797047,-6.1047056 L 32.89111,11.223898 26.03987,13.62815 20.199468,15.609017 M 40.528561,7.8786844 c 0.09086,0.714511 0.05357,1.863143 0.338403,2.4974926 0.790589,1.760732 2.273155,3.156116 3.046668,4.994987 1.419444,3.374468 1.669123,6.371935 1.669123,9.98997 0.411187,-0.222517 1.300389,-0.393295 1.569266,-0.780526 0.213062,-0.306836 0.115459,-0.883519 0.115459,-1.241253 0,-1.223774 -0.13444,-2.362393 -0.328072,-3.567847 C 46.261703,15.55205 43.988996,10.302441 40.528561,7.8786844 m -24.934025,1.42714 -0.224631,4.7571286 c 0.980514,-0.381759 0.579435,-3.861907 0.224631,-4.7571286 m 19.205936,1.7839246 c -0.227775,2.949422 -3.718538,3.922967 -6.065032,3.924633 v -0.118929 c 2.163644,-0.104656 4.579998,-2.05401 5.840401,-3.805704 h 0.224631 m -21.676875,1.189282 -0.112316,3.32999 c 0.679846,-0.560861 0.58595,-2.595843 0.112316,-3.32999 m 22.463083,0.95143 -1.326557,3.924629 0.652665,2.854279 -1.010839,0.237853 c 0.333352,0.99876 -0.293368,1.067977 -1.123154,1.070354 l 0.673893,0.594643 c -0.127479,0.405783 -0.258101,1.156102 -0.609873,1.40573 -0.926266,0.657436 -3.032854,-0.863417 -3.637335,-1.535719 -0.855731,-0.951901 -1.02836,-2.296504 -1.031617,-3.556787 h -0.112316 l -0.224631,0.594644 c -0.703543,-0.156273 -2.23283,-1.312254 -1.162127,-2.137379 0.387488,-0.298629 1.079126,-0.03544 1.499074,0.04245 0.785534,0.145685 1.576235,0.03783 2.358624,-0.07968 2.301342,-0.345722 3.590948,-1.640137 5.054193,-3.415024 m 2.246309,2.497493 -0.447577,15.222814 0.621666,2.616418 0.162857,3.448918 3.144833,0.711789 5.278826,-0.59286 c -1.301399,-1.703766 -3.698102,-2.745814 -5.72809,-2.169607 -0.848541,0.240832 -1.478631,0.813827 -2.246307,1.218182 1.031167,-1.916529 2.563935,-3.591396 3.814792,-5.351769 0.532149,-0.749012 1.002303,-1.820794 1.80098,-2.296149 0.460493,-0.274128 1.08991,0.02354 1.572418,0.103233 0.704666,0.116309 1.446954,0.0358 2.133989,-0.156628 1.807265,-0.506281 2.964563,-1.990149 4.492613,-3.002224 v -0.118929 c -3.194363,-0.62794 -5.713366,-0.0031 -8.423653,1.783921 0.66581,-3.635397 1.09362,-6.258715 -0.449259,-9.752112 -0.884824,1.488864 -1.393724,4.220406 -1.048016,5.946412 0.189474,0.946192 0.871231,1.900469 0.910991,2.854275 0.05762,1.382896 -0.951537,2.562668 -1.323077,3.805705 h -0.112316 c -0.04043,-1.14219 0.390297,-2.193393 0.437579,-3.32999 0.08008,-1.926637 -0.810355,-4.696951 -2.234625,-5.946412 -0.117033,1.517525 -0.689841,2.974394 -0.511034,4.523908 0.196326,1.701866 1.635313,3.56654 1.474811,5.228204 -0.114785,1.188568 -1.246811,2.490832 -1.974616,3.32999 0.451845,-1.233639 0.863031,-2.455509 0.776098,-3.8057 -0.100522,-1.561648 -0.830571,-2.621296 -1.266467,-4.043562 -0.328972,-1.073682 -0.245072,-2.446591 -0.291459,-3.567847 -0.06076,-1.470666 -0.147807,-2.931816 -0.22508,-4.400344 -0.03684,-0.702152 0.0047,-1.64882 -0.340877,-2.259636 m -21.901507,1.189283 -0.561577,0.118928 c 0,2.233828 0.150727,4.966681 -0.336946,7.135695 0.400741,-0.144737 0.998933,-0.339662 1.232325,-0.744969 0.265738,-0.461438 0.02819,-1.135052 0.0075,-1.633596 -0.06087,-1.472925 0.203178,-3.505171 -0.341327,-4.876058 m 15.724159,0.237857 c 0.39344,0.796342 1.72056,1.785588 2.358624,0.713568 l -2.358625,-0.713568 m -10.785538,0.367011 c 0.689617,0.143546 0.43994,1.254932 -0.206772,1.07321 -0.592015,-0.166502 -0.428708,-1.205337 0.206772,-1.07321 m -7.971137,0.227632 -0.249902,6.778909 -0.859887,1.783921 -0.237996,2.616422 c 1.11035,-0.407567 1.953614,-1.228055 2.133993,-2.497493 l -0.449262,0.118928 c 1.283653,-2.562308 0.336946,-5.958541 0.336946,-8.800687 H 12.89894 m 7.300502,16.055306 c -0.232942,-1.079509 0.688157,-2.350497 1.384288,-3.032551 1.589824,-1.557839 3.711575,-2.531029 4.32594,-4.93564 0.552705,-2.163541 -0.907957,-4.006572 -2.453081,-5.214286 -0.424103,-0.331571 -2.321223,-1.271105 -2.161847,-1.925447 0.255293,-1.049186 2.582468,0.504255 3.060371,0.782188 2.142978,1.24637 3.798731,3.307991 3.798619,6.000764 0,0.585124 -0.127478,1.225791 -0.285506,1.783921 -1.149997,4.059496 -5.664852,3.43643 -7.668784,6.541051 m 0.336946,-14.509242 c 0.544618,0.512224 0.904364,1.197131 1.187399,1.90285 2.082216,5.191336 -2.977033,8.306069 -6.353908,10.822471 0.646375,-2.714777 3.991802,-3.779421 5.274108,-6.18427 0.673218,-1.262776 1.013759,-2.857132 0.661088,-4.281414 -0.184534,-0.745562 -0.70096,-1.514906 -0.768687,-2.259637 m 12.130065,1.90285 0.112316,0.118929 -0.112316,-0.118929 m 2.920201,0.118929 -0.561577,9.157473 1.460101,0.475715 -0.542483,-6.422122 -0.356041,-3.211066 m -19.093621,2.973208 c -1.65317,1.032534 -2.133993,2.164256 -2.133993,4.162486 1.709329,-0.326575 2.514069,-2.487264 2.133993,-4.162486 m 16.285736,5.470698 1.123154,0.47571 -0.449261,-5.23284 c -0.570787,0.200634 -0.431179,0.76566 -0.453643,1.308211 -0.04683,1.130294 -0.03864,2.333134 -0.22025,3.448919 M 10.09108,27.382912 v 0.237857 L 9.8664487,27.382912 H 10.09108 m -0.4492623,0.118928 -0.112315,0.118929 0.112315,-0.118929 m 19.8798303,0.237858 c 0.08199,1.14064 0.06784,2.250597 0.484304,3.32999 1.035773,2.683851 3.382379,4.613938 3.751223,7.611406 0.133655,1.086292 -0.07828,2.04711 -0.304487,3.092132 h 0.112315 c 1.914079,-3.060377 2.402652,-6.129919 -0.224631,-8.919617 0.567418,0.08087 1.322963,0.167095 1.792217,0.536841 1.449206,1.141831 1.042287,3.988734 1.240299,5.64743 h 0.112316 c 0.283596,-2.040931 1.101702,-5.0824 -0.381199,-6.884878 -0.740158,-0.899809 -2.332679,-0.611409 -3.32521,-1.114473 -1.508958,-0.76495 -2.136239,-2.128937 -3.257147,-3.298831 m 0.786208,1.427135 -0.112316,0.118929 0.112316,-0.118929 m 11.231543,3.32999 c 2.728589,0.1244 5.452009,0.40174 7.188183,-2.497489 -2.81608,-0.385092 -5.36418,-0.244043 -7.188183,2.497489 M 26.376816,30.712902 c -0.259448,2.127387 -0.650868,3.57534 -0.112315,5.708554 -0.880104,-0.01986 -1.539171,-0.305884 -1.909362,-1.189282 -2.232606,0.911942 -4.240469,1.085102 -6.401979,-0.118929 l 0.786208,1.308211 c -2.267649,-0.627823 -2.953334,-2.217894 -2.246309,-4.519272 h 0.112316 c 0.110181,0.778503 0.459707,1.456753 1.015331,1.986101 3.382042,3.221528 6.384907,-0.981276 8.75611,-3.175383 m -12.130065,0.594643 c -0.212838,0.542075 -0.5171,1.065237 -0.549447,1.664993 -0.110294,2.04366 1.993823,3.485193 3.357332,4.519272 v 0.118928 L 16.605375,37.49181 c 0.937497,1.136598 2.615713,0.6038 3.818724,0.356786 -0.731286,1.491718 -2.440165,1.951732 -3.706409,0.905043 -1.985063,-1.640973 -5.165498,-4.988088 -4.829563,-7.80288 0.890212,0.271392 1.420004,0.718325 2.358624,0.356786 m 0.224631,-0.237857 -0.112316,0.118928 0.112316,-0.118928 M 4.9245697,32.73468 c 2.241378,2.300786 3.766678,2.603458 6.7389263,2.140708 C 10.563479,32.484932 7.0602597,31.886245 4.9245697,32.73468 m 28.4158023,0 -0.112315,0.118929 z"
       id="path144" />
    <text
       xml:space="preserve"
       style="font-style:normal;font-weight:normal;font-size:6.14525px;line-height:1.25;font-family:sans-serif;fill:#FFF7FE;fill-opacity:1;stroke:none;stroke-width:0.153632"
       x="47.239784"
       y="34.391064"
       id="text8709"
       transform="scale(1.0315477,0.96941712)"><tspan
         sodipodi:role="line"
         id="tspan8705"
         style="font-style:normal;font-variant:normal;font-weight:bold;font-stretch:normal;font-size:6.14525px;font-family:sans-serif;-inkscape-font-specification:'sans-serif, Bold';font-variant-ligatures:normal;font-variant-caps:normal;font-variant-numeric:normal;font-variant-east-asian:normal;stroke-width:0.153632"
         x="47.239784"
         y="34.391064">Zahradní architektka</tspan><tspan
         sodipodi:role="line"
         style="font-style:normal;font-variant:normal;font-weight:bold;font-stretch:normal;font-size:6.14525px;font-family:sans-serif;-inkscape-font-specification:'sans-serif, Bold';font-variant-ligatures:normal;font-variant-caps:normal;font-variant-numeric:normal;font-variant-east-asian:normal;stroke-width:0.153632"
         x="47.239784"
         y="42.072624"
         id="tspan8707">Květa Kvítková</tspan></text>
  </g>
</svg>
